<svg width="24" height="24" viewBox="0 0 24 24" fill="none" xmlns="http://www.w3.org/2000/svg">
<g id="parameters">
<g id="Vector">
<path fill-rule="evenodd" clip-rule="evenodd" d="M3.25 8.8C3.25 8.38579 3.58579 8.05 4 8.05H14.5V9.55H4C3.58579 9.55 3.25 9.21421 3.25 8.8ZM18.25 8.8C18.25 8.38579 18.5858 8.05 19 8.05H20.5C20.9142 8.05 21.25 8.38579 21.25 8.8C21.25 9.21421 20.9142 9.55 20.5 9.55H19C18.5858 9.55 18.25 9.21421 18.25 8.8Z" fill="#CACACA"/>
<path fill-rule="evenodd" clip-rule="evenodd" d="M16.25 10C16.9404 10 17.5 9.44036 17.5 8.75C17.5 8.05964 16.9404 7.5 16.25 7.5C15.5596 7.5 15 8.05964 15 8.75C15 9.44036 15.5596 10 16.25 10ZM16.25 11.5C17.7688 11.5 19 10.2688 19 8.75C19 7.23122 17.7688 6 16.25 6C14.7312 6 13.5 7.23122 13.5 8.75C13.5 10.2688 14.7312 11.5 16.25 11.5Z" fill="#CACACA"/>
<path fill-rule="evenodd" clip-rule="evenodd" d="M3.75 15.7C3.75 15.2858 4.08579 14.95 4.5 14.95H6C6.41421 14.95 6.75 15.2858 6.75 15.7C6.75 16.1142 6.41421 16.45 6 16.45H4.5C4.08579 16.45 3.75 16.1142 3.75 15.7ZM10.5 14.95H21C21.4142 14.95 21.75 15.2858 21.75 15.7C21.75 16.1142 21.4142 16.45 21 16.45H10.5V14.95Z" fill="#CACACA"/>
<path fill-rule="evenodd" clip-rule="evenodd" d="M8.75 17C8.05964 17 7.5 16.4404 7.5 15.75C7.5 15.0596 8.05964 14.5 8.75 14.5C9.44036 14.5 10 15.0596 10 15.75C10 16.4404 9.44036 17 8.75 17ZM8.75 18.5C7.23122 18.5 6 17.2688 6 15.75C6 14.2312 7.23122 13 8.75 13C10.2688 13 11.5 14.2312 11.5 15.75C11.5 17.2688 10.2688 18.5 8.75 18.5Z" fill="#CACACA"/>
</g>
</g>
</svg>
