<svg width="24" height="24" viewBox="0 0 24 24" fill="none" xmlns="http://www.w3.org/2000/svg">
<path fill-rule="evenodd" clip-rule="evenodd" d="M23.405 16.865C22.861 15.7695 22.1442 14.7686 21.282 13.901C20.9936 13.5751 20.6917 13.2615 20.377 12.961L20.339 12.924C20.2222 12.8105 20.1068 12.6955 19.993 12.579C21.1716 10.9401 22.1801 9.18536 23.003 7.342L23.036 7.268L23.059 7.19C23.168 6.827 23.292 6.137 22.852 5.513C22.396 4.869 21.667 4.753 21.178 4.753H18.931C18.4605 4.73156 17.9953 4.8595 17.6019 5.11851C17.2086 5.37752 16.9072 5.75433 16.741 6.195C16.2574 7.34664 15.652 8.44322 14.935 9.466V6.833C14.935 6.493 14.903 5.923 14.538 5.443C14.102 4.867 13.471 4.753 13.033 4.753H9.467C9.00167 4.74229 8.55005 4.91096 8.20567 5.22408C7.86128 5.53719 7.65051 5.97076 7.617 6.435L7.614 6.48V6.525C7.614 7.01 7.806 7.368 7.96 7.593C8.029 7.694 8.102 7.786 8.149 7.844L8.159 7.857C8.209 7.919 8.242 7.96 8.275 8.006C8.363 8.124 8.488 8.308 8.524 8.782V10.255C7.80817 9.05632 7.22124 7.78524 6.773 6.463L6.765 6.441L6.757 6.42C6.635 6.101 6.44 5.637 6.049 5.283C5.593 4.868 5.053 4.753 4.562 4.753H2.282C1.785 4.753 1.186 4.869 0.739 5.34C0.3 5.804 0.25 6.36 0.25 6.654V6.788L0.278 6.918C0.909301 9.84878 2.21024 12.5937 4.079 14.938C4.93338 16.2853 6.09329 17.4123 7.46465 18.2275C8.83601 19.0427 10.3802 19.5232 11.972 19.63L12.013 19.633H12.055C12.781 19.633 13.538 19.57 14.107 19.191C14.874 18.679 14.935 17.894 14.935 17.502V16.364C15.132 16.524 15.376 16.738 15.675 17.026C16.037 17.388 16.325 17.702 16.572 17.976L16.704 18.122C16.896 18.336 17.085 18.547 17.257 18.72C17.473 18.937 17.74 19.176 18.074 19.353C18.437 19.544 18.818 19.631 19.222 19.631H21.503C21.984 19.631 22.673 19.517 23.158 18.955C23.686 18.343 23.646 17.592 23.48 17.053L23.45 16.956L23.405 16.865ZM17.685 16.971C17.3751 16.6246 17.056 16.2864 16.728 15.957L16.725 15.954C15.368 14.646 14.735 14.419 14.287 14.419C14.048 14.419 13.785 14.445 13.614 14.659C13.537 14.7611 13.4865 14.8806 13.467 15.007C13.4429 15.1537 13.4322 15.3023 13.435 15.451V17.502C13.435 17.757 13.393 17.864 13.275 17.942C13.118 18.047 12.783 18.132 12.064 18.132C10.6982 18.0391 9.37398 17.6233 8.20018 16.9189C7.02637 16.2145 6.03652 15.2415 5.312 14.08L5.304 14.067L5.294 14.055C3.55312 11.8882 2.33984 9.34624 1.75 6.63C1.754 6.5 1.782 6.421 1.828 6.373C1.875 6.323 1.99 6.253 2.282 6.253H4.562C4.815 6.253 4.947 6.309 5.042 6.394C5.148 6.492 5.242 6.657 5.354 6.951C5.914 8.597 6.67 10.137 7.387 11.268C7.745 11.834 8.097 12.305 8.415 12.638C8.574 12.804 8.729 12.942 8.878 13.04C9.021 13.134 9.184 13.209 9.352 13.209C9.44 13.209 9.543 13.199 9.642 13.156C9.74892 13.1088 9.83693 13.0271 9.892 12.924C9.995 12.736 10.024 12.459 10.024 12.096V8.723C9.971 7.905 9.724 7.444 9.484 7.117C9.4354 7.0516 9.38538 6.98725 9.334 6.924L9.321 6.908C9.27836 6.85621 9.23766 6.80284 9.199 6.748C9.14977 6.68685 9.12015 6.61226 9.114 6.534C9.12184 6.45454 9.15976 6.38108 9.21999 6.32865C9.28022 6.27623 9.35821 6.24881 9.438 6.252H13.033C13.239 6.252 13.308 6.302 13.343 6.349C13.393 6.414 13.435 6.549 13.435 6.833V11.361C13.435 11.899 13.683 12.263 14.043 12.263C14.457 12.263 14.756 12.012 15.278 11.49L15.287 11.48L15.295 11.471C16.466 10.0433 17.4227 8.45258 18.135 6.749L18.139 6.737C18.1925 6.58649 18.2938 6.45761 18.4274 6.37005C18.561 6.28248 18.7196 6.24102 18.879 6.252H21.179C21.491 6.252 21.593 6.332 21.627 6.379C21.662 6.429 21.687 6.536 21.627 6.746C20.8056 8.58236 19.7901 10.3256 18.598 11.946L18.59 11.958C18.475 12.135 18.348 12.331 18.33 12.555C18.31 12.797 18.414 13.016 18.597 13.252C18.73 13.448 19.005 13.717 19.284 13.99L19.31 14.016C19.602 14.302 19.919 14.612 20.173 14.912L20.18 14.919L20.187 14.927C20.9444 15.6825 21.5743 16.5558 22.052 17.513C22.128 17.773 22.082 17.907 22.022 17.976C21.953 18.056 21.798 18.131 21.504 18.131H19.222C19.0665 18.1348 18.9126 18.0986 18.775 18.026C18.6064 17.9279 18.4534 17.8052 18.321 17.662C18.178 17.519 18.023 17.346 17.833 17.135L17.686 16.971H17.685Z" fill="#5BD8BF"/>
</svg>
