<svg width="24" height="24" viewBox="0 0 24 24" fill="none" xmlns="http://www.w3.org/2000/svg">
<path d="M14 12L10.5 14V10L14 12Z" fill="#5BD8BF" stroke="#5BD8BF" stroke-width="1.5" stroke-linecap="round" stroke-linejoin="round"/>
<path d="M2 12.7076V11.2925C2 8.39715 2 6.94949 2.90549 6.01802C3.81099 5.08655 5.23656 5.04623 8.08769 4.96559C9.43873 4.92738 10.8188 4.9 12 4.9C13.1812 4.9 14.5613 4.92738 15.9123 4.96559C18.7634 5.04623 20.189 5.08655 21.0945 6.01802C22 6.94949 22 8.39715 22 11.2925V12.7076C22 15.6029 22 17.0506 21.0945 17.982C20.189 18.9135 18.7635 18.9538 15.9124 19.0345C14.5613 19.0727 13.1812 19.1001 12 19.1001C10.8188 19.1001 9.43867 19.0727 8.0876 19.0345C5.23651 18.9538 3.81097 18.9135 2.90548 17.982C2 17.0506 2 15.6029 2 12.7076Z" stroke="#5BD8BF" stroke-width="1.5"/>
</svg>
